<svg width="159" height="50" fill="none" xmlns="http://www.w3.org/2000/svg"><path d="M45.5801 35.4363c-.2495-.6094-.4833-1.25-.7327-1.7969L43.6939 31.03l-.0468-.0469c-3.4294-7.5-7.0926-15.125-10.9741-22.62497l-.1559-.3125c-.3897-.73438-.7794-1.54688-1.1847-2.29688-.4988-.89062-.9821-1.84375-1.7771-2.75-.7749-.94823-1.7502-1.7122-2.8554-2.236786-1.1052-.524583-2.3128-.796693-3.5357-.796693-1.2229 0-2.4305.27211-3.5358.796693-1.1052.524586-2.0805 1.288556-2.8554 2.236786-.7327.90625-1.2782 1.85938-1.7771 2.75-.3897.8125-.7794 1.60938-1.1847 2.34375l-.1558.3125C9.83623 15.905 6.11065 23.53 2.68123 31.03l-.09353.0938c-.34294.8125-.74823 1.6562-1.13794 2.5625-.24941.5468-.49882 1.1406-.748231 1.7968-.6733612 1.7184-.888387 3.5831-.6238847 5.4102.2645017 1.827.9994057 3.5535 2.1322757 5.0092 1.13287 1.4557 2.6246 2.5904 4.32819 3.2923 1.70359.7018 3.56019.9466 5.38699.7102 1.7512-.2311 3.4376-.8158 4.957-1.7187 2.0265-1.1407 3.975-2.7969 6.1574-5.1875 2.1823 2.3906 4.1776 4.0468 6.1573 5.2031 1.9038 1.1201 4.0597 1.7383 6.2665 1.7969 2.5554.0106 5.0285-.9059 6.9624-2.5802 1.934-1.6743 3.1984-3.9934 3.5596-6.5292.4176-1.8222.2763-3.7284-.4052-5.4688v.0157zM23.1954 38.03c-2.6812-3.4375-4.4271-6.5937-5.0195-9.2969-.2454-1.0016-.2983-2.041-.1558-3.0625.1091-.7968.4053-1.5.8105-2.0937.9353-1.3594 2.5721-2.2031 4.3648-2.2031.8513-.0261 1.6957.1601 2.4576.5419.7618.3818 1.4171.9472 1.9071 1.6456.4053.625.7014 1.3125.795 2.1093.1558.9063.0935 1.9532-.1559 3.0625-.5924 2.6563-2.3383 5.8438-5.0038 9.2969zm19.8594 2.3125c-.1771 1.2874-.6877 2.5058-1.4809 3.5339-.7931 1.028-1.8412 1.8298-3.0397 2.3255-1.1847.5-2.4941.6406-3.7724.5-1.247-.1563-2.4941-.5625-3.7723-1.3125-2.1224-1.3149-4.0308-2.9485-5.6586-4.8438 3.2736-4.0625 5.2533-7.7656 6.0015-11.0625.3585-1.5625.4053-2.9687.2494-4.2656-.1946-1.2292-.6519-2.4018-1.3406-3.4375-.7862-1.123-1.8357-2.0352-3.0562-2.6564-1.2204-.6212-2.5744-.9324-3.9429-.9061-2.8838 0-5.4559 1.3438-7.0147 3.5469-.7017 1.033-1.1552 2.215-1.325 3.4531-.2026 1.3125-.1559 2.7656.2494 4.2656.7483 3.2969 2.7747 7.0469 6.0015 11.0938-1.6002 1.9315-3.513 3.5795-5.6585 4.875-1.2939.75-2.5253 1.1406-3.7724 1.2969-1.93935.249-3.89838-.2794-5.45126-1.4702-1.55288-1.1908-2.57409-2.9478-2.84167-4.8892-.15588-1.25-.04677-2.5.45206-3.9063.15588-.5.3897-1 .63912-1.5937.34294-.8125.74823-1.6563 1.13794-2.5l.06235-.1094C9.088 24.8269 12.7668 17.2175 16.5859 9.76438l.1559-.3125c.3897-.75.7794-1.54688 1.1847-2.29688.4053-.79687.8418-1.5625 1.403-2.1875.4857-.58121 1.0927-1.04863 1.7781-1.36935.6854-.32071 1.4326-.48691 2.1891-.48691.7564 0 1.5036.1662 2.1891.48691.6854.32072 1.2923.78814 1.7781 1.36935.5456.625.9976 1.39063 1.4029 2.1875.3897.75.7794 1.5625 1.1847 2.29688l.1559.3125C33.8109 17.2175 37.4898 24.8269 40.9192 32.28l.0467.0469c.4053.8125.7483 1.7187 1.138 2.5.2494.6094.4988 1.0937.6547 1.6094.2962 1.4062.452 2.6562.2962 3.9062zm21.6988-2.6562c-1.1747.0172-2.3381-.2309-3.404-.7259s-2.007-1.2242-2.7534-2.1335c-1.6772-1.9376-2.5673-4.4358-2.4941-7-.0256-2.62.8932-5.1612 2.5877-7.1563.7837-.9209 1.7594-1.6584 2.8582-2.1605 1.0989-.5021 2.2942-.7567 3.5018-.7457 1.1362-.0312 2.2618.2278 3.2707.7526 1.0089.5248 1.8682 1.2982 2.4969 2.2474l.1559-2.4531h4.5517v18.875h-4.5673l-.1559-2.75c-.6482 1.0135-1.5441 1.8441-2.6027 2.4129s-2.2446.857-3.4455.8371zm1.1847-4.5c.9041 0 1.6991-.25 2.4473-.7032.6859-.5 1.2471-1.1562 1.6836-1.9531.3897-.7969.5923-1.75.5923-2.8125.0608-.9228-.1184-1.8456-.5201-2.6782-.4016-.8326-1.012-1.5465-1.7714-2.0718-.7296-.4557-1.572-.6972-2.4317-.6972-.8597 0-1.7021.2415-2.4318.6972-.6859.5-1.247 1.1563-1.6835 1.9531-.4122.8788-.615 1.8417-.5924 2.8125-.0607.9228.1185 1.8457.5201 2.6783.4017.8326 1.012 1.5464 1.7714 2.0717.7327.4532 1.5277.7032 2.4162.7032zm17.3809-19.9688c0 .5469-.0936 1.0469-.343 1.4531-.2494.3907-.5923.75-1.0444 1-.452.25-.9353.3438-1.4341.3438-.4988 0-.9977-.0938-1.4497-.3438-.4275-.2385-.7871-.5828-1.0444-1-.2414-.4451-.3598-.9467-.343-1.4531 0-.5625.1092-1.0625.343-1.4531.2494-.4688.6079-.75 1.0444-1 .452-.25.9353-.3594 1.4497-.3594.4962-.0115.9869.1063 1.424.3419.4372.2355.8059.5807 1.0701 1.0019.2269.4555.3392.9597.3274 1.4687zm-5.3 23.9063V18.28h4.957v18.875h-4.9726l.0156-.0312zm18.207-13.9063v.0625c-.2338-.1094-.5456-.1562-.7794-.2031-.3118-.0625-.5612-.0625-.8573-.0625-1.3874 0-2.4318.4062-3.1177 1.25-.7482.8594-1.0912 2.0625-1.0912 3.6094v9.2656H85.408v-18.875h4.5673l.1559 2.8594c.4988-1 1.0912-1.75 1.933-2.3125.8373-.5466 1.823-.8195 2.8214-.7813.3586 0 .7015.0313.9977.0938.1559.0468.2494.0468.3429.0937v5zm1.9953 13.9063V10.53h4.9575v10.1563c.701-.9063 1.496-1.6094 2.494-2.1563 1.579-.7762 3.373-.9964 5.093-.625 1.719.3714 3.264 1.3126 4.384 2.6719 1.681 1.9415 2.572 4.4461 2.494 7.0156.026 2.62-.893 5.1612-2.587 7.1563-.784.9209-1.76 1.6583-2.858 2.1605-1.099.5021-2.295.7566-3.502.7457-1.136.0312-2.262-.2278-3.271-.7526s-1.868-1.2982-2.497-2.2474l-.156 2.4531-4.5515.0469v-.0312zm9.5865-3.9375c.889 0 1.684-.25 2.432-.7032.686-.5 1.247-1.1562 1.684-1.9531.405-.7969.592-1.75.592-2.8125 0-1.0469-.187-2-.592-2.7969-.41-.7684-.985-1.4356-1.684-1.9531-.73-.4557-1.572-.6972-2.432-.6972-.859 0-1.702.2415-2.431.6972-.702.5-1.248 1.1563-1.7 1.9531-.412.8788-.615 1.8417-.592 2.8125-.061.9228.118 1.8457.52 2.6783.402.8326 1.012 1.5464 1.772 2.0717.732.4532 1.527.7032 2.431.7032zm11.707 3.9531v-18.875h4.567l.156 2.4531c.574-.9403 1.388-1.7099 2.359-2.2291.97-.5192 2.061-.7691 3.16-.724 1.256-.0218 2.491.3283 3.55 1.0064 1.059.6781 1.896 1.6542 2.404 2.8061.546 1.1875.842 2.6562.842 4.2969v11.3125h-4.973V26.53c0-1.3125-.296-2.3437-.888-3.1094-.593-.75-1.403-1.1562-2.432-1.1562-.748 0-1.403.1562-1.98.5-.545.3594-.997.8125-1.34 1.4531-.347.6476-.519 1.3747-.499 2.1094v10.8125h-4.926zm19.517 0v-26.625h4.972v10.1562c.674-.9113 1.55-1.6527 2.559-2.1653 1.009-.5126 2.124-.7823 3.256-.7878 1.174-.0172 2.338.2309 3.404.7259 1.065.495 2.007 1.2242 2.753 2.1335 1.669 1.9414 2.553 4.4383 2.478 7 .028 2.6202-.892 5.1619-2.587 7.1562-.784.9209-1.76 1.6584-2.858 2.1605-1.099.5022-2.295.7567-3.502.7458-1.136.0312-2.262-.2278-3.271-.7526s-1.868-1.2982-2.497-2.2474l-.14 2.4531-4.567.0469zm9.633-3.9531c.904 0 1.699-.25 2.432-.7032.701-.5 1.247-1.1562 1.699-1.9531.39-.7969.592-1.75.592-2.8125.061-.9228-.118-1.8456-.52-2.6782-.401-.8326-1.012-1.5465-1.771-2.0718-.73-.4557-1.572-.6972-2.432-.6972-.86 0-1.702.2415-2.432.6972-.686.5-1.247 1.1563-1.683 1.9531-.435.871-.639 1.8396-.593 2.8125-.06.9228.119 1.8457.52 2.6783.402.8326 1.013 1.5464 1.772 2.0717.733.4532 1.481.7032 2.416.7032z" fill="#FF385C"/></svg>