<svg width="150" height="150" fill="none" xmlns="http://www.w3.org/2000/svg"><rect width="150" height="150" rx="75" fill="#FFEFEF"/><path d="M74.6799 47.4262l-19.5303 6.0114c-7.1172 2.1906-10.1523 7.7073-8.3921 15.2535l4.8257 20.6879c1.7602 7.5462 6.7899 10.5805 13.9071 8.3899l19.5303-6.0114c7.1172-2.1907 10.1337-7.7017 8.3735-15.2478l-4.8257-20.6879c-1.7602-7.5462-6.7713-10.5863-13.8885-8.3956z" fill="url(#paint0_linear_42_54)"/><g opacity="0.5" filter="url(#filter0_f_42_54)"><path d="M73.2811 56.6791l-12.9007 3.9706c-4.7012 1.447-6.7378 4.9546-5.6312 9.6984l3.0338 13.0053c1.1066 4.7439 4.3971 6.6118 9.0984 5.1649l12.9007-3.9707c4.7012-1.4469 6.7255-4.9507 5.6189-9.6946l-3.0337-13.0053c-1.1066-4.7438-4.3849-6.6155-9.0862-5.1686z" fill="#E31313"/></g><g filter="url(#filter1_b_42_54)"><path d="M87.5629 58.2966H69.1052c-7.2171 0-12.071 5.5577-12.071 13.8242V91.199c0 8.2431 4.8539 13.801 12.071 13.801h18.4577c7.2171 0 12.0497-5.5579 12.0497-13.801V72.1208c0-8.2665-4.8326-13.8242-12.0497-13.8242z" fill="#F03E3D"/><path d="M87.5629 57.7966H69.1052c-3.7455 0-6.9032 1.4464-9.1185 3.9833-2.2102 2.531-3.4525 6.1117-3.4525 10.3409V91.199c0 4.2178 1.2425 7.7927 3.4527 10.321 2.2153 2.533 5.3729 3.98 9.1183 3.98h18.4577c3.7456 0 6.8981-1.447 9.1081-3.981 2.2048-2.528 3.442-6.1027 3.442-10.32V72.1208c0-4.2287-1.237-7.8092-3.4418-10.3404-2.2101-2.5373-5.3627-3.9838-9.1083-3.9838z" stroke="url(#paint1_linear_42_54)" stroke-linecap="round" stroke-linejoin="round"/></g><g filter="url(#filter2_b_42_54)"><path d="M101.871 54.8657c-1.727 0-3.1278 1.5362-3.1278 3.4313 0 1.895 1.4008 3.4312 3.1278 3.4312 1.728 0 3.129-1.5362 3.129-3.4312 0-.9101-.33-1.7828-.917-2.4263-.586-.6435-1.382-1.005-2.212-1.005z" fill="url(#paint2_linear_42_54)"/></g><g filter="url(#filter3_bd_42_54)"><path d="M89.4615 77.5129l-6.0842 8.6116c-.2559.3743-.6399.6185-1.0635.6765-.4237.058-.8507-.0752-1.1829-.3689l-5.8408-5.0235-5.2604 7.4634c-.3809.6635-1.1229.9617-1.8052.7254-.6823-.2362-1.133-.9473-1.0965-1.7301-.0031-.3873.1159-.7639.337-1.0662l6.2901-8.8986c.2529-.3713.6317-.6154 1.0508-.6771.4192-.0618.8434.0641 1.1769.349l5.8407 5.044 5.1294-7.2379c.2466-.3732.6208-.6209 1.0371-.6866.4163-.0657.8392.0563 1.1719.338.6875.5898.8204 1.6723.2996 2.44v.041z" fill="url(#paint3_linear_42_54)"/><path d="M83.214 86.0091h0l-.0018.0025c-.2262.3309-.5616.5414-.9256.5913-.3635.0497-.7328-.0638-1.0232-.3207l-.0021-.0018-5.8408-5.0234-.167-.1436-.1268.18-5.2605 7.4634-.0053.0076-.0046.008c-.3373.5875-.9825.8382-1.5664.636-.5891-.204-.9949-.8272-.9621-1.5317h.0003l-.0001-.011c-.0028-.3459.1036-.6802.2984-.9465h.0001l.0018-.0026 6.2901-8.8987h0l.002-.0028c.2235-.3283.5545-.5388.9147-.5919.3596-.0529.7261.0542 1.0173.3029.0002.0001.0003.0002.0005.0004l5.8399 5.0432.1666.1439.1273-.1796 5.1294-7.2379.0001.0001.0036-.0054c.2178-.3296.5443-.543.9014-.5993.3564-.0563.7209.0473 1.011.2926.607.5212.7295 1.489.2638 2.1755l-.0345.0509v.0389l-6.0475 8.5597z" stroke="url(#paint4_linear_42_54)" stroke-width="0.4"/></g><defs><filter id="filter0_f_42_54" x="37.4541" y="39.2012" width="65.2432" height="66.7954" filterUnits="userSpaceOnUse" color-interpolation-filters="sRGB"><feFlood flood-opacity="0" result="BackgroundImageFix"/><feBlend in="SourceGraphic" in2="BackgroundImageFix" result="shape"/><feGaussianBlur stdDeviation="8.5" result="effect1_foregroundBlur_42_54"/></filter><filter id="filter1_b_42_54" x="32.0342" y="33.2966" width="92.5781" height="96.7031" filterUnits="userSpaceOnUse" color-interpolation-filters="sRGB"><feFlood flood-opacity="0" result="BackgroundImageFix"/><feGaussianBlur in="BackgroundImage" stdDeviation="12"/><feComposite in2="SourceAlpha" operator="in" result="effect1_backgroundBlur_42_54"/><feBlend in="SourceGraphic" in2="effect1_backgroundBlur_42_54" result="shape"/></filter><filter id="filter2_b_42_54" x="83.7432" y="39.8657" width="36.2568" height="36.8625" filterUnits="userSpaceOnUse" color-interpolation-filters="sRGB"><feFlood flood-opacity="0" result="BackgroundImageFix"/><feGaussianBlur in="BackgroundImage" stdDeviation="7.5"/><feComposite in2="SourceAlpha" operator="in" result="effect1_backgroundBlur_42_54"/><feBlend in="SourceGraphic" in2="effect1_backgroundBlur_42_54" result="shape"/></filter><filter id="filter3_bd_42_54" x="52.126" y="59.6765" width="52.6533" height="45.0012" filterUnits="userSpaceOnUse" color-interpolation-filters="sRGB"><feFlood flood-opacity="0" result="BackgroundImageFix"/><feGaussianBlur in="BackgroundImage" stdDeviation="7.5"/><feComposite in2="SourceAlpha" operator="in" result="effect1_backgroundBlur_42_54"/><feColorMatrix in="SourceAlpha" values="0 0 0 0 0 0 0 0 0 0 0 0 0 0 0 0 0 0 127 0" result="hardAlpha"/><feOffset dx="5" dy="5"/><feGaussianBlur stdDeviation="5"/><feColorMatrix values="0 0 0 0 1 0 0 0 0 0.321569 0 0 0 0 0.54902 0 0 0 0.5 0"/><feBlend in2="effect1_backgroundBlur_42_54" result="effect2_dropShadow_42_54"/><feBlend in="SourceGraphic" in2="effect2_dropShadow_42_54" result="shape"/></filter><linearGradient id="paint0_linear_42_54" x1="73.8464" y1="74.6215" x2="39.4676" y2="102.315" gradientUnits="userSpaceOnUse"><stop stop-color="#F03E3D"/><stop offset="1" stop-color="#870404"/></linearGradient><linearGradient id="paint1_linear_42_54" x1="63.812" y1="63.7376" x2="94.0645" y2="97.8969" gradientUnits="userSpaceOnUse"><stop stop-color="#fff" stop-opacity="0.25"/><stop offset="1" stop-color="#fff" stop-opacity="0"/></linearGradient><linearGradient id="paint2_linear_42_54" x1="102.332" y1="58.7565" x2="96.6511" y2="61.2747" gradientUnits="userSpaceOnUse"><stop stop-color="#FF759F" stop-opacity="0"/><stop offset="1" stop-color="#FF196E"/></linearGradient><linearGradient id="paint3_linear_42_54" x1="88.1732" y1="77.3854" x2="62.9738" y2="78.6261" gradientUnits="userSpaceOnUse"><stop stop-color="#fff"/><stop offset="1" stop-color="#fff" stop-opacity="0.2"/></linearGradient><linearGradient id="paint4_linear_42_54" x1="70.732" y1="76.4242" x2="78.8726" y2="91.6495" gradientUnits="userSpaceOnUse"><stop stop-color="#fff" stop-opacity="0.25"/><stop offset="1" stop-color="#fff" stop-opacity="0"/></linearGradient></defs></svg>