<svg width="58" height="59" fill="none" xmlns="http://www.w3.org/2000/svg"><g clip-path="url(#clip0_1_541)" filter="url(#filter0_d_1_541)"><rect x="4" y="0.830078" width="50" height="50" rx="19" fill="#02897A"/><path d="M33.1161 27.4283l-9.1429-9.1429c-.1071-.116-.25-.1696-.4018-.1696-.0714 0-.1518.0178-.2143.0446-.2142.0893-.3571.2947-.3571.5268v13.4286c0 .2321.1429.4375.3571.5268.0625.0268.1429.0446.2143.0446.1518 0 .2947-.0625.4018-.1696l2.7857-2.7857 1.7054 4.0357c.125.2857.4553.4285.75.3035l1.5803-.6696c.2858-.125.4286-.4554.3036-.75l-1.7946-4.25h3.4107c.2321 0 .4375-.1429.5268-.3571.0893-.2054.0446-.4554-.125-.6161z" fill="#fff"/></g><defs><filter id="filter0_d_1_541" x="0" y="0.830078" width="59" height="58" filterUnits="userSpaceOnUse" color-interpolation-filters="sRGB"><feFlood flood-opacity="0" result="BackgroundImageFix"/><feColorMatrix in="SourceAlpha" values="0 0 0 0 0 0 0 0 0 0 0 0 0 0 0 0 0 0 127 0" result="hardAlpha"/><feOffset dy="4"/><feGaussianBlur stdDeviation="2"/><feColorMatrix values="0 0 0 0 0 0 0 0 0 0 0 0 0 0 0 0 0 0 0.25 0"/><feBlend in2="BackgroundImageFix" result="effect1_dropShadow_1_541"/><feBlend in="SourceGraphic" in2="effect1_dropShadow_1_541" result="shape"/></filter><clipPath id="clip0_1_541"><path fill="#fff" transform="translate(4 0.830078)" d="M0 0h51v50H0z"/></clipPath></defs></svg>