<svg width="58" height="59" fill="none" xmlns="http://www.w3.org/2000/svg"><g clip-path="url(#clip0_1_549)" filter="url(#filter0_d_1_549)"><rect x="4" y="0.830078" width="50" height="50" rx="19" fill="#4D8DFF"/><path d="M29.4821 25.4729l1.1697.5447 1.7411-.5179v-1.2143c0-2.0625-1.7411-3.7143-3.8215-3.7143-2.0714 0-3.8214 1.6429-3.8214 3.6875v5.5358c0 .5089-.4107.9107-.9107.9107-.5 0-.9107-.4018-.9107-.9107v-2.3393H20v2.375c0 2.116 1.7143 3.8303 3.8304 3.8303 2.0982 0 3.8303-1.6875 3.8303-3.7768v-5.4642c0-.5.4107-.9108.9107-.9108.5 0 .9107.4108.9107.9108v1.0535zm4.7322 1.9822v2.4553c0 .5-.4107.9018-.9107.9018-.5 0-.9107-.4018-.9107-.9018v-2.4107l-1.7411.5179-1.1697-.5447v2.3929c0 2.0982 1.7233 3.7946 3.8304 3.7946 2.1161 0 3.8304-1.7143 3.8304-3.8303v-2.375h-2.9286z" fill="#fff"/></g><defs><filter id="filter0_d_1_549" x="0" y="0.830078" width="58" height="58" filterUnits="userSpaceOnUse" color-interpolation-filters="sRGB"><feFlood flood-opacity="0" result="BackgroundImageFix"/><feColorMatrix in="SourceAlpha" values="0 0 0 0 0 0 0 0 0 0 0 0 0 0 0 0 0 0 127 0" result="hardAlpha"/><feOffset dy="4"/><feGaussianBlur stdDeviation="2"/><feColorMatrix values="0 0 0 0 0 0 0 0 0 0 0 0 0 0 0 0 0 0 0.25 0"/><feBlend in2="BackgroundImageFix" result="effect1_dropShadow_1_549"/><feBlend in="SourceGraphic" in2="effect1_dropShadow_1_549" result="shape"/></filter><clipPath id="clip0_1_549"><path fill="#fff" transform="translate(4 0.830078)" d="M0 0h50v50H0z"/></clipPath></defs></svg>