<svg width="15" height="23" fill="none" xmlns="http://www.w3.org/2000/svg"><path d="M6.89489 22.1818h2.01136l.01705-1.9687c3.6903-.2813 5.8295-2.2415 5.8381-5.1989-.0086-2.9062-2.1989-4.4489-5.23299-5.13068l-.50284-.11932.03409-4.26136c1.13354.2642 1.82384.98864 1.92614 2.0625h3.5369c-.0426-2.82102-2.1477-4.84091-5.42895-5.19886L9.1108.363635H7.09943L7.08239 2.34943C3.75 2.67329 1.39773 4.68466 1.41477 7.59091c-.00852 2.57389 1.80682 4.04829 4.75568 4.75569l.81819.2045-.04262 4.5086c-1.3892-.2642-2.3267-1.1165-2.42045-2.5398H.954545c.085225 3.4432 2.343755 5.3693 5.957385 5.6846l-.01704 1.9773zm2.0625-5.1221l.03409-3.9802c1.32102.4177 2.03692.9546 2.04542 1.9262-.0085 1.0312-.7926 1.7983-2.07951 2.054zM7.0142 9.24432c-1.06534-.36648-1.83238-.92046-1.81534-1.90057 0-.91193.64773-1.61932 1.84944-1.86648l-.0341 3.76705z" fill="#fff"/></svg>