<svg width="150" height="150" fill="none" xmlns="http://www.w3.org/2000/svg"><rect width="150" height="150" rx="75" fill="#F2F6FF"/><g filter="url(#filter0_b_34_364)"><path d="M76.1403 47.3411l-20.455 5.8478c-7.4541 2.131-10.5459 7.8441-8.5488 15.7965l5.4752 21.8016c1.9971 7.9524 7.352 11.251 14.8061 9.1196l20.4551-5.8478c7.4541-2.1311 10.5265-7.8386 8.5293-15.791L90.927 56.4662c-1.9971-7.9523-7.3325-11.2562-14.7867-9.1251z" fill="url(#paint0_linear_34_364)"/></g><g opacity="0.5" filter="url(#filter1_f_34_364)"><path d="M86.2195 75.9124l-3.7146-15.0127c-1.3474-5.4455-4.7196-7.8871-9.1535-6.6382L58.334 58.4913c-4.5067 1.2694-6.2518 5.1524-4.9044 10.5979l3.7146 15.0127c1.3691 5.5332 4.6609 7.9017 9.1676 6.6324l15.0174-4.2299c4.434-1.2489 6.2593-5.0588 4.8903-10.592z" fill="#11B5E4"/></g><g filter="url(#filter2_b_34_364)"><mask id="path-4-outside-1_34_364" maskUnits="userSpaceOnUse" x="59.6602" y="56.626" width="48" height="51" fill="#000"><path fill="#fff" d="M59.6602 56.626h48v51h-48z"/><path d="M93.9231 57.626H72.7484c-7.7163 0-12.0882 4.6646-12.0882 12.8975v22.5707c0 8.2328 4.3719 12.8978 12.0882 12.8978h21.1747c7.7159 0 12.0679-4.665 12.0679-12.8978V70.5235c0-8.2329-4.352-12.8975-12.0679-12.8975z"/></mask><path d="M93.9231 57.626H72.7484c-7.7163 0-12.0882 4.6646-12.0882 12.8975v22.5707c0 8.2328 4.3719 12.8978 12.0882 12.8978h21.1747c7.7159 0 12.0679-4.665 12.0679-12.8978V70.5235c0-8.2329-4.352-12.8975-12.0679-12.8975z" fill="#00ACDD"/><path d="M93.9231 58.626c.5523 0 1-.4477 1-1s-.4477-1-1-1v2zm0-2c-.5523 0-1 .4477-1 1s.4477 1 1 1v-2zm0 0H72.7484v2h21.1747v-2zm-21.1747 0c-4.0626 0-7.3766 1.2335-9.6674 3.6775-2.2817 2.4346-3.4208 5.9346-3.4208 10.22h2c0-3.9475 1.0468-6.8963 2.8801-8.8523 1.8243-1.9464 4.5544-3.0452 8.2081-3.0452v-2zM59.6602 70.5235v22.5707h2V70.5235h-2zm0 22.5707c0 4.2854 1.1391 7.7858 3.4208 10.2198 2.2908 2.444 5.6048 3.678 9.6674 3.678v-2c-3.6537 0-6.3838-1.099-8.2081-3.046-1.8333-1.9556-2.8801-4.9043-2.8801-8.8518h-2zm13.0882 13.8978h21.1747v-2H72.7484v2zm21.1747 0c4.0627 0 7.3719-1.234 9.6579-3.679 2.277-2.435 3.41-5.9346 3.41-10.2188h-2c0 3.9486-1.042 6.8975-2.871 8.8528-1.819 1.946-4.5433 3.045-8.1969 3.045v2zm13.0679-13.8978V70.5235h-2v22.5707h2zm0-22.5707c0-4.2843-1.133-7.7842-3.41-10.2191-2.286-2.4448-5.5952-3.6784-9.6579-3.6784v2c3.6536 0 6.3779 1.0987 8.1969 3.0443 1.829 1.9557 2.871 4.9045 2.871 8.8532h2z" fill="url(#paint1_linear_34_364)" mask="url(#path-4-outside-1_34_364)"/></g><g filter="url(#filter3_bd_34_364)"><mask id="path-6-inside-2_34_364" fill="#fff"><path fill-rule="evenodd" clip-rule="evenodd" d="M83.4047 67.5144c-1.0275 0-1.8737.9028-1.8737 2.0206v24.5483c0 1.0963.8462 1.9991 1.8737 1.9991 1.0477 0 1.8938-.9028 1.8938-1.9991V69.535c0-1.1178-.8461-2.0206-1.8938-2.0206zm-10.5769 7.9327c-1.0275 0-1.8737.9028-1.8737 2.0206V94.084c0 1.0963.8462 1.9991 1.8737 1.9991 1.0476 0 1.8938-.9028 1.8938-1.9991V77.4677c0-1.1178-.8462-2.0206-1.8938-2.0206zm19.12 10.7907c0-1.1177.8462-2.0206 1.8938-2.0206 1.0275 0 1.8737.9029 1.8737 2.0206v7.846c0 1.0963-.8462 1.9992-1.8938 1.9992-1.0275 0-1.8737-.9029-1.8737-1.9992v-7.846z"/></mask><path fill-rule="evenodd" clip-rule="evenodd" d="M83.4047 67.5144c-1.0275 0-1.8737.9028-1.8737 2.0206v24.5483c0 1.0963.8462 1.9991 1.8737 1.9991 1.0477 0 1.8938-.9028 1.8938-1.9991V69.535c0-1.1178-.8461-2.0206-1.8938-2.0206zm-10.5769 7.9327c-1.0275 0-1.8737.9028-1.8737 2.0206V94.084c0 1.0963.8462 1.9991 1.8737 1.9991 1.0476 0 1.8938-.9028 1.8938-1.9991V77.4677c0-1.1178-.8462-2.0206-1.8938-2.0206zm19.12 10.7907c0-1.1177.8462-2.0206 1.8938-2.0206 1.0275 0 1.8737.9029 1.8737 2.0206v7.846c0 1.0963-.8462 1.9992-1.8938 1.9992-1.0275 0-1.8737-.9029-1.8737-1.9992v-7.846z" fill="url(#paint2_linear_34_364)"/><path d="M81.931 69.535c0-.9245.6938-1.6206 1.4737-1.6206v-.8c-1.2751 0-2.2737 1.1096-2.2737 2.4206h.8zm0 24.5483V69.535h-.8v24.5483h.8zm1.4737 1.5991c-.7826 0-1.4737-.6989-1.4737-1.5991h-.8c0 1.2924 1.0013 2.3991 2.2737 2.3991v-.8zm1.4938-1.5991c0 .8973-.6884 1.5991-1.4938 1.5991v.8c1.2899 0 2.2938-1.1038 2.2938-2.3991h-.8zm0-24.5483v24.5483h.8V69.535h-.8zm-1.4938-1.6206c.8027 0 1.4938.6989 1.4938 1.6206h.8c0-1.3139-1.0012-2.4206-2.2938-2.4206v.8zm-12.0506 9.5533c0-.9245.6938-1.6206 1.4737-1.6206v-.8c-1.2751 0-2.2737 1.1096-2.2737 2.4206h.8zm0 16.6163V77.4677h-.8V94.084h.8zm1.4737 1.5991c-.7826 0-1.4737-.6989-1.4737-1.5991h-.8c0 1.2924 1.0012 2.3991 2.2737 2.3991v-.8zm1.4938-1.5991c0 .8973-.6884 1.5991-1.4938 1.5991v.8c1.2899 0 2.2938-1.1038 2.2938-2.3991h-.8zm0-16.6163V94.084h.8V77.4677h-.8zm-1.4938-1.6206c.8027 0 1.4938.6989 1.4938 1.6206h.8c0-1.3139-1.0012-2.4206-2.2938-2.4206v.8zm21.0138 7.9701c-1.2926 0-2.2938 1.1068-2.2938 2.4206h.8c0-.9216.6911-1.6206 1.4938-1.6206v-.8zm2.2737 2.4206c0-1.311-.9986-2.4206-2.2737-2.4206v.8c.7799 0 1.4737.6961 1.4737 1.6206h.8zm0 7.846v-7.846h-.8v7.846h.8zm-2.2938 2.3992c1.2899 0 2.2938-1.1039 2.2938-2.3992h-.8c0 .8974-.6884 1.5992-1.4938 1.5992v.8zm-2.2737-2.3992c0 1.2924 1.0012 2.3992 2.2737 2.3992v-.8c-.7826 0-1.4737-.699-1.4737-1.5992h-.8zm0-7.846v7.846h.8v-7.846h-.8z" fill="url(#paint3_linear_34_364)" mask="url(#path-6-inside-2_34_364)"/></g><defs><filter id="filter0_b_34_364" x="33.543" y="33.7083" width="76.4551" height="79.8315" filterUnits="userSpaceOnUse" color-interpolation-filters="sRGB"><feFlood flood-opacity="0" result="BackgroundImageFix"/><feGaussianBlur in="BackgroundImage" stdDeviation="6.5"/><feComposite in2="SourceAlpha" operator="in" result="effect1_backgroundBlur_34_364"/><feBlend in="SourceGraphic" in2="effect1_backgroundBlur_34_364" result="shape"/></filter><filter id="filter1_f_34_364" x="39.9863" y="40.9412" width="59.6787" height="63.1279" filterUnits="userSpaceOnUse" color-interpolation-filters="sRGB"><feFlood flood-opacity="0" result="BackgroundImageFix"/><feBlend in="SourceGraphic" in2="BackgroundImageFix" result="shape"/><feGaussianBlur stdDeviation="6.5" result="effect1_foregroundBlur_34_364"/></filter><filter id="filter2_b_34_364" x="44.6602" y="41.626" width="77.3311" height="80.3657" filterUnits="userSpaceOnUse" color-interpolation-filters="sRGB"><feFlood flood-opacity="0" result="BackgroundImageFix"/><feGaussianBlur in="BackgroundImage" stdDeviation="7.5"/><feComposite in2="SourceAlpha" operator="in" result="effect1_backgroundBlur_34_364"/><feBlend in="SourceGraphic" in2="effect1_backgroundBlur_34_364" result="shape"/></filter><filter id="filter3_bd_34_364" x="55.9541" y="52.5144" width="54.7607" height="58.5688" filterUnits="userSpaceOnUse" color-interpolation-filters="sRGB"><feFlood flood-opacity="0" result="BackgroundImageFix"/><feGaussianBlur in="BackgroundImage" stdDeviation="7.5"/><feComposite in2="SourceAlpha" operator="in" result="effect1_backgroundBlur_34_364"/><feColorMatrix in="SourceAlpha" values="0 0 0 0 0 0 0 0 0 0 0 0 0 0 0 0 0 0 127 0" result="hardAlpha"/><feOffset dx="5" dy="5"/><feGaussianBlur stdDeviation="5"/><feColorMatrix values="0 0 0 0 1 0 0 0 0 0.447059 0 0 0 0 0.368627 0 0 0 0.5 0"/><feBlend in2="effect1_backgroundBlur_34_364" result="effect2_dropShadow_34_364"/><feBlend in="SourceGraphic" in2="effect2_dropShadow_34_364" result="shape"/></filter><linearGradient id="paint0_linear_34_364" x1="75.7789" y1="75.8334" x2="40.4732" y2="104.53" gradientUnits="userSpaceOnUse"><stop stop-color="#11B5E4"/><stop offset="1" stop-color="#035B81"/></linearGradient><linearGradient id="paint1_linear_34_364" x1="67.8761" y1="63.2606" x2="99.0892" y2="99.4933" gradientUnits="userSpaceOnUse"><stop stop-color="#fff" stop-opacity="0.25"/><stop offset="1" stop-color="#fff" stop-opacity="0"/></linearGradient><linearGradient id="paint2_linear_34_364" x1="64.5447" y1="88.7187" x2="77.4079" y2="113.486" gradientUnits="userSpaceOnUse"><stop stop-color="#fff"/><stop offset="1" stop-color="#fff" stop-opacity="0.2"/></linearGradient><linearGradient id="paint3_linear_34_364" x1="74.8957" y1="70.8427" x2="93.4913" y2="90.8043" gradientUnits="userSpaceOnUse"><stop stop-color="#fff" stop-opacity="0.25"/><stop offset="1" stop-color="#fff" stop-opacity="0"/></linearGradient></defs></svg>