<svg width="140" height="42" fill="none" xmlns="http://www.w3.org/2000/svg"><g clip-path="url(#clip0_34_1685)"><path d="M104.109 40.743l11.676-12.9312-11.676-12.933h12.319l5.783 6.282 5.568-6.282h11.889l-11.62 12.8796 11.78 12.9846h-12.37l-5.73-6.3336-5.676 6.3336h-11.943z" fill="#F60"/><path d="M104.109 9.081H90.886v5.7978h13.223v8.7378H90.886v8.0202h13.223v9.1062H81.167V0h22.942v9.081z" fill="#F60"/><path d="M71.4889 0v16.674h-.1065c-2.1427-2.4276-4.8197-3.2712-7.9259-3.2712-6.3627 0-11.1555 4.2636-12.838 9.9006-1.9186-6.2112-6.8667-10.017-14.2039-10.017-5.9585 0-10.6637 2.6364-13.1192 6.9324v-5.3394H10.979V9.0822h13.4407V0H0v40.7436h10.979v-17.127h10.9432c-.3263 1.2582-.5004 2.6052-.5004 4.0266 0 8.499 6.5867 14.4624 14.9928 14.4624 7.0688 0 11.7271-3.2712 14.1911-9.2352h-9.4086c-1.2727 1.7916-2.2381 2.3238-4.7825 2.3238-2.9503 0-5.4941-2.5374-5.4941-5.5452h19.1581c.8309 6.7506 6.1655 12.5724 13.4863 12.5724 3.1579 0 6.0492-1.5312 7.8175-4.1166h.1065v2.6376h9.6782V0h-9.6782zM31.2261 23.7384c.6105-2.5878 2.6466-4.2792 5.1885-4.2792 2.7982 0 4.7308 1.6392 5.2391 4.2792H31.2261zm34.3895 10.8012c-3.5676 0-5.7845-3.2766-5.7845-6.6978 0-3.657 1.9284-7.1736 5.7845-7.1736 3.9985 0 5.5914 3.5166 5.5914 7.1736-.0006 3.468-1.6885 6.6978-5.5914 6.6978z" fill="#652C8F"/></g><defs><clipPath id="clip0_34_1685"><path fill="#fff" d="M0 0h140v42H0z"/></clipPath></defs></svg>