<svg width="40" height="56" fill="none" xmlns="http://www.w3.org/2000/svg"><path d="M36.7692 11.844h-23.712v10.488c1.0133-1.1147 2.432-2.0267 4.256-2.736 1.824-.7093 3.8-1.064 5.928-1.064 3.8 0 6.9413.8613 9.424 2.584 2.5333 1.7227 4.3826 3.952 5.548 6.688 1.1653 2.736 1.748 5.7 1.748 8.892 0 5.928-1.672 10.64-5.016 14.136-3.344 3.4453-8.056 5.168-14.136 5.168-4.0534 0-7.5747-.684-10.564-2.052-2.98938-1.4187-5.29471-3.3693-6.91604-5.852C1.70782 45.6133.821157 42.7507.669157 39.508H13.3612c.304 1.5707 1.0386 2.888 2.204 3.952 1.1653 1.0133 2.7613 1.52 4.788 1.52 2.3813 0 4.1546-.76 5.32-2.28 1.1653-1.52 1.748-3.5467 1.748-6.08 0-2.4827-.608-4.3827-1.824-5.7-1.216-1.3173-2.9894-1.976-5.32-1.976-1.7227 0-3.1414.4307-4.256 1.292-1.1147.8107-1.8494 1.9-2.204 3.268H1.27716V.444H36.7692v11.4z" fill="#fff"/></svg>