<svg width="146" height="50" fill="none" xmlns="http://www.w3.org/2000/svg"><path d="M62.1302 25.6412c0 6.9402-5.3623 12.0544-11.943 12.0544-6.5808 0-11.9431-5.1142-11.9431-12.0544 0-6.9891 5.3623-12.0543 11.9431-12.0543 6.5807 0 11.943 5.0652 11.943 12.0543zm-5.2281 0c0-4.3369-3.1079-7.3043-6.7149-7.3043-3.6071 0-6.715 2.9674-6.715 7.3043 0 4.2935 3.1079 7.3044 6.715 7.3044 3.607 0 6.7149-3.0163 6.7149-7.3044z" fill="#EA4335"/><path d="M87.8948 25.6412c0 6.9402-5.3623 12.0544-11.943 12.0544-6.5807 0-11.943-5.1142-11.943-12.0544 0-6.9837 5.3623-12.0543 11.943-12.0543 6.5807 0 11.943 5.0652 11.943 12.0543zm-5.2281 0c0-4.3369-3.1078-7.3043-6.7149-7.3043s-6.7149 2.9674-6.7149 7.3043c0 4.2935 3.1078 7.3044 6.7149 7.3044s6.7149-3.0163 6.7149-7.3044z" fill="#FBBC05"/><path d="M112.586 14.3151v21.6413c0 8.9022-5.185 12.5381-11.315 12.5381-5.7703 0-9.2432-3.9076-10.5529-7.1033l4.5518-1.9185c.8105 1.962 2.7966 4.2772 5.9961 4.2772 3.923 0 6.355-2.4511 6.355-7.0652V34.951h-.183c-1.17 1.462-3.424 2.7391-6.269 2.7391-5.9528 0-11.4063-5.25-11.4063-12.0054 0-6.8043 5.4535-12.0978 11.4063-12.0978 2.839 0 5.094 1.2772 6.269 2.6956h.183v-1.9619h4.965v-.0055zm-4.595 11.3696c0-4.2446-2.796-7.3478-6.355-7.3478-3.6071 0-6.6291 3.1032-6.6291 7.3478 0 4.2011 3.022 7.2609 6.6291 7.2609 3.559 0 6.355-3.0598 6.355-7.2609z" fill="#4285F4"/><path d="M120.772 1.6304v35.3261h-5.099V1.6304h5.099z" fill="#34A853"/><path d="M140.643 29.6087l4.058 2.7391c-1.309 1.9619-4.465 5.3424-9.919 5.3424-6.763 0-11.814-5.2935-11.814-12.0544 0-7.1684 5.094-12.0543 11.229-12.0543 6.178 0 9.2 4.9782 10.188 7.6685l.542 1.3695-15.915 6.6739c1.218 2.4185 3.113 3.6522 5.77 3.6522 2.662 0 4.509-1.3261 5.861-3.3369zm-12.49-4.337l10.639-4.4728c-.585-1.5055-2.346-2.5544-4.418-2.5544-2.657 0-6.355 2.375-6.221 7.0272z" fill="#EA4335"/><path d="M18.9426 22.5054v-5.1141h17.0208c.1664.8913.2522 1.9456.2522 3.0869 0 3.837-1.0359 8.5815-4.3746 11.962-3.2474 3.4239-7.3966 5.25-12.8931 5.25C8.76012 37.6902.193359 29.288.193359 18.9728.193359 8.65757 8.76012.255402 18.9479.255402c5.636 0 9.651 2.239128 12.6677 5.157608l-3.5642 3.6087c-2.1631-2.05435-5.0938-3.65218-9.1088-3.65218-7.4396 0-13.25814 6.07067-13.25814 13.60327S11.503 32.5761 18.9426 32.5761c4.8255 0 7.5737-1.962 9.3343-3.7446 1.4278-1.4457 2.3671-3.5109 2.7375-6.3315l-12.0718.0054z" fill="#4285F4"/></svg>