<svg width="40" height="41" fill="none" xmlns="http://www.w3.org/2000/svg"><circle cx="20" cy="20.0161" r="20" fill="#EDFFFC"/><path d="M25 10.0161H15c-2.7614 0-5 2.2386-5 5v10c0 2.7614 2.2386 5 5 5h10c2.7614 0 5-2.2386 5-5v-10c0-2.7614-2.2386-5-5-5z" stroke="#02897A" stroke-width="2" stroke-linecap="round" stroke-linejoin="round"/><path d="M24 19.3859c.1234.8323-.0188 1.6822-.4063 2.429-.3875.7468-1.0006 1.3524-1.7521 1.7307-.7515.3783-1.6032.5099-2.4339.3763-.8306-.1337-1.598-.5259-2.1929-1.1208-.5949-.5949-.9871-1.3623-1.1208-2.193-.1336-.8306-.002-1.6823.3763-2.4338.3782-.7515.9838-1.3646 1.7306-1.7521.7468-.3875 1.5968-.5297 2.4291-.4063.8489.1259 1.6348.5215 2.2416 1.1283.6069.6069 1.0025 1.3928 1.1284 2.2417zM25.5 14.5161h.01" stroke="#02897A" stroke-width="2" stroke-linecap="round" stroke-linejoin="round"/></svg>