<svg width="58" height="59" fill="none" xmlns="http://www.w3.org/2000/svg"><g clip-path="url(#clip0_1_557)" filter="url(#filter0_d_1_557)"><rect x="4" y="0.830078" width="50" height="50" rx="19" fill="#740A76"/><path d="M29 33.9729c.1429 0 .2857-.0535.3929-.1607l5.5625-5.3571C35.0357 28.3747 37 26.5801 37 24.4372c0-2.6161-1.5982-4.1786-4.2679-4.1786-1.5625 0-3.0267 1.2322-3.7321 1.9286-.7054-.6964-2.1696-1.9286-3.7321-1.9286-2.6697 0-4.2679 1.5625-4.2679 4.1786 0 2.1429 1.9643 3.9375 2.0357 4l5.5714 5.375c.1072.1072.25.1607.3929.1607z" fill="#fff"/></g><defs><filter id="filter0_d_1_557" x="0" y="0.830078" width="58" height="58" filterUnits="userSpaceOnUse" color-interpolation-filters="sRGB"><feFlood flood-opacity="0" result="BackgroundImageFix"/><feColorMatrix in="SourceAlpha" values="0 0 0 0 0 0 0 0 0 0 0 0 0 0 0 0 0 0 127 0" result="hardAlpha"/><feOffset dy="4"/><feGaussianBlur stdDeviation="2"/><feColorMatrix values="0 0 0 0 0 0 0 0 0 0 0 0 0 0 0 0 0 0 0.25 0"/><feBlend in2="BackgroundImageFix" result="effect1_dropShadow_1_557"/><feBlend in="SourceGraphic" in2="effect1_dropShadow_1_557" result="shape"/></filter><clipPath id="clip0_1_557"><path fill="#fff" transform="translate(4 0.830078)" d="M0 0h50v50H0z"/></clipPath></defs></svg>