<svg width="40" height="37" fill="none" xmlns="http://www.w3.org/2000/svg"><path fill-rule="evenodd" clip-rule="evenodd" d="M3.13307 34.4587C1.40988 34.4587 1.6e-7 33.0488 1.5e-7 31.3256L7e-8 20.372H7.88626v-.0122h4.74004c1.2219-.0313 2.2558-1.0965 2.2558-2.3498 0-1.2845-1.0653-2.3498-2.3498-2.3498H6.26614v.002H4e-8l-2e-8-3.135C1e-8 10.804 1.40988 9.3941 3.13307 9.3941h9.39923c2.3811 0 4.4176.8459 6.0781 2.5378 1.6919 1.6605 2.5378 3.697 2.5378 6.0781 0 2.3498-.8146 4.3863-2.4751 6.0469-1.6605 1.6605-3.6657 2.5378-6.0155 2.5691H6.26614v4.6996c0 1.7232-1.40988 3.1331-3.13307 3.1331z" fill="#02BC6B"/><path fill-rule="evenodd" clip-rule="evenodd" d="M25.0975 5.7578c3.4614 3.36213 5.2056 7.5495 5.2056 12.3094 0 4.6801-1.6712 8.8635-5.0792 12.2362l-4.8387-4.5526c2.1195-2.0975 3.1598-4.6228 3.1598-7.6836 0-3.084-1.0716-5.6053-3.2419-7.7134l4.7944-4.596z" fill="#02897A"/><path fill-rule="evenodd" clip-rule="evenodd" d="M32.5055-3e-8C37.4911 4.97781 39.9999 11.1499 39.9999 18.2338c0 6.9733-2.4077 13.1415-7.3115 18.13l-4.6698-4.5629c3.6529-3.7159 5.4428-8.2228 5.4428-13.5671 0-5.398-1.8503-9.90104-5.5827-13.62764L32.5055-3e-8z" fill="#035B81"/><path fill-rule="evenodd" clip-rule="evenodd" d="M0 26.6524h6.26614v4.6736c0 1.7232-1.40988 3.1331-3.13307 3.1331S4e-8 33.0492 3e-8 31.326L0 26.6524z" fill="#028E37"/></svg>