<svg width="213" height="44" fill="none" xmlns="http://www.w3.org/2000/svg"><path d="M75.1843 25.3426l-1.2695 3.4791h-.1058c-.2116-.7845-.5995-1.9783-1.2343-3.4109L65.7686 8.86818h-6.6651V35.2341h4.4081V18.9643c0-1.0233 0-2.1829-.0352-3.6155-.0353-.7163-.1058-1.262-.1411-1.6713h.1058c.2116 1.0232.4584 1.7736.6348 2.2511l8.1814 19.2372h3.1033l8.111-19.4077c.1763-.4434.3526-1.3302.5289-2.0806h.1058c-.1058 1.9442-.1763 3.6837-.2116 4.7411v16.7131h4.6903V8.79996h-6.4182L75.1843 25.3426zm17.844-9.107h4.5845v18.8961h-4.5845V16.2356zm2.3275-7.98138c-.7758 0-1.4106.27287-1.9395.75039-.529.47752-.8111 1.09149-.8111 1.84189 0 .7162.2821 1.3302.8111 1.8077.5289.4775 1.1637.7163 1.9395.7163.7759 0 1.4459-.2729 1.9396-.7163.529-.4775.8111-1.0915.8111-1.8077 0-.7163-.2821-1.33026-.8111-1.84189-.4584-.47752-1.1285-.75039-1.9396-.75039zM113.87 16.0651c-.846-.1706-1.728-.2729-2.574-.2729-2.081 0-3.985.4434-5.572 1.3302-1.587.8869-2.857 2.1148-3.668 3.6497-.846 1.5689-1.269 3.3767-1.269 5.4573 0 1.8078.423 3.4109 1.234 4.8775.811 1.4326 1.939 2.5923 3.456 3.3768 1.446.7845 3.138 1.1938 5.043 1.1938 2.186 0 4.055-.4434 5.536-1.262l.036-.0341v-4.0931l-.177.1365c-.67.4775-1.446.8868-2.221 1.1255-.812.2729-1.552.4093-2.187.4093-1.834 0-3.279-.5116-4.302-1.6372-1.058-1.0914-1.587-2.5922-1.587-4.4682 0-1.9442.529-3.479 1.622-4.6046 1.093-1.1256 2.539-1.7055 4.302-1.7055 1.482 0 2.998.4776 4.373 1.4326l.177.1364v-4.3317l-.036-.0342c-.599-.2387-1.269-.5116-2.186-.6821zm15.129-.1365c-1.129 0-2.187.3411-3.104 1.0574-.776.614-1.305 1.5008-1.763 2.5581h-.035v-3.3085h-4.585v18.8961h4.585V25.479c0-1.6372.352-3.0015 1.128-3.9907.776-1.0232 1.763-1.5349 2.962-1.5349.424 0 .847.1024 1.376.1706.493.1364.846.2729 1.093.4434l.176.1364v-4.4341l-.105-.0341c-.318-.2046-.953-.307-1.728-.307zm12.483-.1023c-3.209 0-5.783.9209-7.582 2.7287-1.833 1.8078-2.715 4.2977-2.715 7.4357 0 2.9333.917 5.3209 2.68 7.0604 1.763 1.7054 4.161 2.5923 7.159 2.5923 3.138 0 5.642-.921 7.441-2.7628 1.834-1.8419 2.715-4.2977 2.715-7.3334 0-3.0015-.846-5.3891-2.574-7.1286-1.658-1.7396-4.091-2.5923-7.124-2.5923zm3.668 14.5302c-.846 1.0574-2.187 1.569-3.844 1.569s-2.998-.5116-3.95-1.6372c-.952-1.0573-1.41-2.5922-1.41-4.5364 0-2.0124.493-3.5473 1.41-4.6388.952-1.0914 2.257-1.6372 3.915-1.6372 1.622 0 2.891.5117 3.808 1.569.917 1.0574 1.411 2.5923 1.411 4.6047-.071 2.0465-.458 3.6496-1.34 4.7069zm16.257-6.2759c-1.446-.5799-2.363-1.0233-2.786-1.3985-.353-.3411-.529-.8186-.529-1.4325 0-.5117.212-1.0233.741-1.3644.529-.3411 1.128-.5116 2.01-.5116.776 0 1.587.1364 2.363.3411.775.2046 1.481.5116 2.045.9209l.176.1365v-4.1613l-.106-.0341c-.529-.2046-1.234-.4093-2.08-.5798-.847-.1365-1.622-.2047-2.257-.2047-2.187 0-3.985.5116-5.396 1.6372-1.41 1.0574-2.08 2.4899-2.08 4.1613 0 .8868.141 1.6713.458 2.3193.317.6481.776 1.2621 1.411 1.7737.634.4775 1.551 1.0232 2.821 1.5349 1.058.4434 1.869.7845 2.363 1.0573.493.2729.811.5799 1.058.8186.176.2729.282.614.282 1.0574 0 1.262-.988 1.876-2.998 1.876-.776 0-1.587-.1365-2.539-.4434-.952-.307-1.834-.7504-2.574-1.2621l-.177-.1364v4.3318l.106.0341c.67.307 1.481.5116 2.469.7504.987.1705 1.869.307 2.645.307 2.362 0 4.302-.5117 5.677-1.6372 1.411-1.0915 2.151-2.49 2.151-4.2977 0-1.262-.352-2.3876-1.128-3.2403-1.023-.8186-2.292-1.6713-4.126-2.3535zm17.35-8.2543c-3.209 0-5.783.9209-7.582 2.7287-1.798 1.8078-2.715 4.2977-2.715 7.4357 0 2.9333.917 5.3209 2.68 7.0604 1.763 1.7054 4.161 2.5923 7.159 2.5923 3.138 0 5.642-.921 7.441-2.7628 1.834-1.8419 2.715-4.2977 2.715-7.3334 0-3.0015-.846-5.3891-2.574-7.1286-1.658-1.7396-4.091-2.5923-7.124-2.5923zm3.633 14.5302c-.847 1.0574-2.187 1.569-3.844 1.569-1.693 0-2.998-.5116-3.95-1.6372-.952-1.0573-1.411-2.5922-1.411-4.5364 0-2.0124.494-3.5473 1.411-4.6388.952-1.0914 2.257-1.6372 3.914-1.6372 1.587 0 2.892.5117 3.809 1.569.917 1.0574 1.411 2.5923 1.411 4.6047 0 2.0465-.459 3.6496-1.34 4.7069zm30.574-10.4713v-3.6496h-4.619v-5.5938l-.141.0341-4.373 1.262-.106.0342v4.2635h-6.912V13.848c0-1.0915.282-1.9442.776-2.4899.493-.5457 1.234-.8186 2.151-.8186.635 0 1.305.1364 2.045.4434l.177.1023V7.23097l-.106-.03411c-.635-.20465-1.481-.34109-2.575-.34109-1.375 0-2.574.30698-3.667.81861-1.093.57984-1.904 1.36434-2.504 2.42172-.599 1.0232-.917 2.1829-.917 3.5132v2.6263h-3.209v3.6155h3.209v15.2806h4.62V19.8852h6.912v9.721c0 3.9907 1.939 6.0031 5.819 6.0031.634 0 1.304-.1024 1.939-.2047.67-.1364 1.164-.307 1.446-.4434l.035-.0341v-3.6496l-.176.1364c-.282.1706-.529.307-.952.4093-.353.1023-.67.1364-.917.1364-.917 0-1.552-.2046-2.01-.7162-.423-.4775-.635-1.262-.635-2.4217v-8.9365h4.69z" fill="#737373"/><path d="M0 0h21.6174v20.9085H0V0z" fill="#F25022"/><path d="M23.874 0h21.6174v20.9085H23.874V0z" fill="#7FBA00"/><path d="M0 23.0915h21.6174V44H0V23.0915z" fill="#00A4EF"/><path d="M23.874 23.0915h21.6174V44H23.874V23.0915z" fill="#FFB900"/></svg>