<svg width="19" height="19" fill="none" xmlns="http://www.w3.org/2000/svg"><path d="M18.2961 6.58663c-.0577-.16981-.1638-.31902-.3053-.42921-.1415-.11019-.3121-.17653-.4909-.19084l-5.2291-.41551L10.008.542056C9.9359.380725 9.81869.243699 9.67047.147514 9.52225.0513295 9.34936.00009712 9.17266 1.4e-7 8.99597-.00009684 8.82302.0509458 8.6747.146968c-.14833.096022-.26569.232919-.33793.39417L6.07395 5.55107l-5.229153.41551c-.175692.01392-.343653.07816-.483791.18503-.140138.10688-.246518.25187-.3064128.41762-.05989516.16575-.0707695.34525-.0313219.51702.0394477.17177.1275467.32854.2537577.45155l3.864311 3.7671-1.36668 5.918c-.0415.1791-.0282.3666.03817.5381.06637.1714.18276.319.33404.4235.15129.1046.3305.1612.51437.1626.18387.0014.36392-.0525.51679-.1547l4.99434-3.3296 4.99433 3.3296c.1562.1037.3405.1571.528.153.1875-.0041.3692-.0655.5208-.176.1515-.1105.2656-.2647.3268-.442.0613-.1772.0668-.369.0158-.5495l-1.6776-5.8703 4.1606-3.74412c.2724-.24582.3724-.62922.255-.97685z" fill="#F3CD03"/></svg>