<svg width="19" height="19" fill="none" xmlns="http://www.w3.org/2000/svg"><path d="M4.19767 11.3049l-1.36668 5.918c-.04232.1792-.02961.367.03646.5389.06607.1718.18243.3198.3339.4245.15146.1047.33097.1613.5151.1624.18412.0011.3643-.0534.517-.1563l4.99434-3.3295 4.99431 3.3295c.1563.1038.3405.1572.528.153.1875-.0041.3692-.0655.5208-.176.1515-.1105.2656-.2647.3269-.442.0612-.1772.0667-.369.0158-.5494l-1.6777-5.8703 4.1606-3.74419c.1333-.11998.2284-.27639.2737-.44989.0453-.1735.0388-.35647-.0188-.52628-.0576-.16982-.1637-.31903-.3051-.42919-.1415-.11016-.3122-.17643-.4909-.19063l-5.2292-.41642L10.0634.542085C9.99123.380794 9.87394.243833 9.72567.147729 9.5774.0516259 9.40448.00048828 9.22779.00048828c-.1767 0-.34962.05113762-.49789.14724072-.14827.096104-.26556.233065-.33771.394356L6.12937 5.5511l-5.229153.41551c-.175692.01392-.343653.07816-.483791.18503-.140138.10688-.246518.25187-.306413.41762-.059895.16575-.0707694.34525-.0313217.51702.0394477.17177.1275467.32854.2537577.45155L4.19767 11.3049zm2.61687-3.96794c.16372-.0129.32096-.06961.45523-.16418.13427-.09457.24062-.22351.30791-.37332l1.65011-3.65151 1.65011 3.65151c.0673.14981.1736.27875.3079.37332.1343.09457.2915.15128.4552.16418l3.6433.28892-3.0003 2.70032c-.2605.2348-.3641.5962-.2687.9338l1.1493 4.022-3.42683-2.2848c-.15041-.1009-.32746-.1549-.50861-.1549-.18115 0-.35819.054-.50861.1549l-3.58088 2.3876.9631-4.1698c.03531-.1533.03057-.3132-.01376-.4642-.04434-.151-.12678-.2881-.2394-.398L3.06305 7.63597l3.75149-.29901z" fill="#F3CD03"/></svg>