<svg width="74" height="57" fill="none" xmlns="http://www.w3.org/2000/svg"><path d="M.37583 13.604V1.52H21.4278V57H7.89983V13.604h-7.524zM30.518 28.5c0-8.7147 1.672-15.58 5.016-20.596C38.9287 2.888 44.3754.379995 51.874.379995c7.4987 0 12.9201 2.508005 16.2641 7.524005 3.3946 5.016 5.092 11.8813 5.092 20.596 0 8.816-1.6974 15.732-5.092 20.748-3.344 5.016-8.7654 7.524-16.2641 7.524-7.4986 0-12.9453-2.508-16.34-7.524-3.344-5.016-5.016-11.932-5.016-20.748zm29.944 0c0-5.1173-.5573-9.044-1.6719-11.78-1.1147-2.7867-3.4201-4.18-6.9161-4.18s-5.8013 1.3933-6.9159 4.18c-1.1147 2.736-1.672 6.6627-1.672 11.78 0 3.4453.2026 6.308.608 8.588.4053 2.2293 1.216 4.0533 2.432 5.472 1.2666 1.368 3.116 2.052 5.5479 2.052 2.432 0 4.2561-.684 5.4721-2.052 1.2666-1.4187 2.1026-3.2427 2.508-5.472.4053-2.28.6079-5.1427.6079-8.588z" fill="#02897A"/></svg>