<svg width="58" height="59" fill="none" xmlns="http://www.w3.org/2000/svg"><g clip-path="url(#clip0_1_565)" filter="url(#filter0_d_1_565)"><rect x="4" y="0.830078" width="50" height="50" rx="19" fill="#F03E3D"/><path d="M34.5714 20.2586h.8572c.1607 0 .2857-.125.2857-.2857v-.5714c0-.1607-.125-.2857-.2857-.2857H22.2857c-.1607 0-.2857.125-.2857.2857v.5714c0 .1607.125.2857.2857.2857h.8572c0 3.3036 1.5803 5.6965 3.3303 6.8572-1.75 1.1607-3.3303 3.5536-3.3303 6.8571h-.8572c-.1607 0-.2857.125-.2857.2857v.5715c0 .1607.125.2857.2857.2857h13.1429c.1607 0 .2857-.125.2857-.2857v-.5715c0-.1607-.125-.2857-.2857-.2857h-.8572c0-3.3035-1.5803-5.6964-3.3303-6.8571 1.75-1.1607 3.3303-3.5536 3.3303-6.8572zm-1.1428 0c0 1.3036-.2947 2.4554-.759 3.4286h-7.625c-.4642-.9732-.7589-2.125-.7589-3.4286h9.1429zm-.509 10.8572h-8.125c.6608-1.7232 1.8483-2.9464 3.0358-3.4286h2.0535c1.1875.4822 2.375 1.7054 3.0357 3.4286z" fill="#fff"/></g><defs><filter id="filter0_d_1_565" x="0" y="0.830078" width="58" height="58" filterUnits="userSpaceOnUse" color-interpolation-filters="sRGB"><feFlood flood-opacity="0" result="BackgroundImageFix"/><feColorMatrix in="SourceAlpha" values="0 0 0 0 0 0 0 0 0 0 0 0 0 0 0 0 0 0 127 0" result="hardAlpha"/><feOffset dy="4"/><feGaussianBlur stdDeviation="2"/><feColorMatrix values="0 0 0 0 0 0 0 0 0 0 0 0 0 0 0 0 0 0 0.25 0"/><feBlend in2="BackgroundImageFix" result="effect1_dropShadow_1_565"/><feBlend in="SourceGraphic" in2="effect1_dropShadow_1_565" result="shape"/></filter><clipPath id="clip0_1_565"><path fill="#fff" transform="translate(4 0.830078)" d="M0 0h50v50H0z"/></clipPath></defs></svg>