<svg width="40" height="40" fill="none" xmlns="http://www.w3.org/2000/svg"><circle cx="20" cy="20" r="20" fill="#EDFFFC"/><path d="M31 11.0101c-.9576.6754-2.0179 1.1921-3.14 1.53-.6023-.6925-1.4027-1.1834-2.293-1.4061-.8903-.2228-1.8275-.1667-2.6849.1605-.8574.3273-1.5937.91-2.1091 1.6693-.5155.7593-.7853 1.6586-.773 2.5763v1c-1.7574.0455-3.4987-.3442-5.069-1.1346S12.0103 13.4487 11 12.0101c0 0-4 9 5 13-2.0595 1.3979-4.5128 2.0989-7 2 9 5 20 0 20-11.5-.0009-.2786-.0277-.5564-.08-.83 1.0206-1.0066 1.7408-2.2773 2.08-3.67v0z" stroke="#02897A" stroke-width="2" stroke-linecap="round" stroke-linejoin="round"/></svg>