<svg width="44" height="57" fill="none" xmlns="http://www.w3.org/2000/svg"><path d="M.630938 28.5c0-8.7147 1.672002-15.58 5.016002-20.596C9.0416 2.888 14.4883.379995 21.9869.379995c7.4987 0 12.92 2.508005 16.264 7.524005 3.3947 5.016 5.092 11.8813 5.092 20.596 0 8.816-1.6973 15.732-5.092 20.748-3.344 5.016-8.7653 7.524-16.264 7.524-7.4986 0-12.9453-2.508-16.33996-7.524C2.30294 44.232.630938 37.316.630938 28.5zm29.943962 0c0-5.1173-.5573-9.044-1.672-11.78-1.1146-2.7867-3.42-4.18-6.916-4.18-3.496 0-5.8013 1.3933-6.916 4.18-1.1146 2.736-1.672 6.6627-1.672 11.78 0 3.4453.2027 6.308.608 8.588.4054 2.2293 1.216 4.0533 2.432 5.472 1.2667 1.368 3.116 2.052 5.548 2.052s4.256-.684 5.472-2.052c1.2667-1.4187 2.1027-3.2427 2.508-5.472.4054-2.28.608-5.1427.608-8.588z" fill="#02897A"/></svg>